# xmcd
#
# Track frame offsets:
#	150
#	10702
#	24932
#	34562
#	46096
#	57208
#	74194
#	84587
#	95584
#	108080
#	121967
#	135120
#	145032
#	158305
#	171313
#	181627
#	195118
#	209557
#	224355
#	235126
#	245798
#	258976
#	268587
#	280308
#	292200
#	301932
#	312625
#	321941
#	335121
#	345272
#	357984
#	368500
#	378132
#
# Disc length: 5191 seconds
#
# Revision: 1
# Processed by: cddbd v1.5.2PL0 Copyright (c) Steve Scherf et al.
# Submitted via: EasyCDDAExtractor 7.0.3.1
#
DISCID=dc144521
DTITLE=Hank Snow - Snow South of the Border
DYEAR=2008
DGENRE=Country
TTITLE0=Spanish Fire Ball
TTITLE1=Nuevo Laredo
TTITLE2=Adios Amigo
TTITLE3=Caribbean
TTITLE4=Maria Elena
TTITLE5=Vaya Con Dios
TTITLE6=Blue Rose Of the Rio
TTITLE7=Cuba Rhumba
TTITLE8=Senorita Rosalita
TTITLE9=The Rhumba Boogie
TTITLE10=Rose of Old Monterey
TTITLE11=Jamaica Farewell
TTITLE12=Vaya Con Dios (Instrumental)
TTITLE13=My Adobe Hacienda
TTITLE14=Limbo Rock
TTITLE15=Poison Love
TTITLE16=The Seashores of Old Mexico
TTITLE17=The Mysterious Lady From St. Martinique
TTITLE18=Jamaica Farewell
TTITLE19=When Mexican Joe Met Jole Blon
TTITLE20=Panamama
TTITLE21=El Rancho Grande
TTITLE22=My Sweet Conchita
TTITLE23=Vaya Con Dios
TTITLE24=New Spanish Two Step
TTITLE25=Calypso Sweetheart
TTITLE26=La Cucaracha
TTITLE27=Rose Of the Rio
TTITLE28=Sleepy Rio Grande
TTITLE29=The Rhumba Boogie
TTITLE30=Spanish Fireball
TTITLE31=Cuba Rhumba
TTITLE32=Caribbean
EXTD=
EXTT0=
EXTT1=
EXTT2=
EXTT3=
EXTT4=
EXTT5=
EXTT6=
EXTT7=
EXTT8=
EXTT9=
EXTT10=
EXTT11=
EXTT12=
EXTT13=
EXTT14=
EXTT15=
EXTT16=
EXTT17=
EXTT18=
EXTT19=
EXTT20=
EXTT21=
EXTT22=
EXTT23=
EXTT24=
EXTT25=
EXTT26=
EXTT27=
EXTT28=
EXTT29=
EXTT30=
EXTT31=
EXTT32=
PLAYORDER=
